<?xml version="1.0" encoding="utf-8"?>
<!-- Generator: Adobe Illustrator 19.0.0, SVG Export Plug-In . SVG Version: 6.00 Build 0)  -->
<svg version="1.1" id="Layer_1" xmlns="http://www.w3.org/2000/svg" xmlns:xlink="http://www.w3.org/1999/xlink" x="0px" y="0px"
	 viewBox="0 0 381 415" style="enable-background:new 0 0 381 415;" xml:space="preserve">
<style type="text/css">
	.st0{fill:#FFFFFF;}
	.st1{clip-path:url(#XMLID_111_);}
	.st2{fill-rule:evenodd;clip-rule:evenodd;}
	.st3{font-family:'SegoeUI';}
	.st4{font-size:110.4151px;}
</style>
<g id="XMLID_112_">
	<circle id="XMLID_109_" class="st0" cx="190.6" cy="133.8" r="122.5"/>
	<g id="XMLID_113_">
		<defs>
			<circle id="XMLID_106_" cx="190.5" cy="134.5" r="123.1"/>
		</defs>
		<use xlink:href="#XMLID_106_"  style="overflow:visible;fill-rule:evenodd;clip-rule:evenodd;fill:#FFFFFF;"/>
		<clipPath id="XMLID_111_">
			<use xlink:href="#XMLID_106_"  style="overflow:visible;"/>
		</clipPath>
		<g id="XMLID_118_" class="st1">
			<g id="XMLID_119_">
				<path id="XMLID_108_" class="st2" d="M191.5,53c0,0-22.8-3-22.9,34c0,0-7.2,5.8,3.2,14.1c0,0,2.7,18.5-1.4,20.7
					c-4.1,2.2-7.4,5.5-12.6,6.1c-5.2,0.6-15-17.1-37.3-10.2c0,0-9.8-14.1-26.3-9.4c0,0,0.7-23.1,10.9-27.2c0,0,6.4,10.7,23,7.4
					c0,0,5.6-6.2,2-14.8c0,0-32.1-22.3-42.6-3.2c0,0-26.9,19.9-31.7,42.8c0,0-18.2,26.5,25.1,31.8c0,0,7.4,16.1,37.2,18.8
					c0,0,6.9,20.2,14.8,29.4c7.9,9.2,20.1,24,20.1,24s-8,17.4,0.7,35.1c0,0,16.7,11.6,35.6,11L191.5,53z"/>
			</g>
		</g>
		<g id="XMLID_115_" class="st1">
			<g id="XMLID_116_">
				<path id="XMLID_107_" class="st2" d="M187.8,53c0,0,22.8-3,22.8,34.1c0,0,7.1,5.8-3.3,14.1c0,0-2.7,18.5,1.4,20.7
					c4.1,2.2,7.4,5.5,12.6,6.1c5.2,0.6,15.1-17.1,37.3-10.1c0,0,9.9-14.1,26.4-9.3c0,0-0.7-23.1-10.8-27.2c0,0-6.4,10.7-23,7.3
					c0,0-5.6-6.2-2-14.8c0,0,32.2-22.2,42.7-3.1c0,0,26.9,20,31.6,42.9c0,0,18.1,26.6-25.2,31.7c0,0-7.4,16.1-37.3,18.7
					c0,0-7,20.2-14.9,29.3c-7.9,9.1-20.2,23.9-20.2,23.9s8,17.4-0.8,35.1c0,0-16.7,11.6-35.7,10.9L187.8,53z"/>
			</g>
		</g>
		
			<use xlink:href="#XMLID_106_"  style="overflow:visible;fill-rule:evenodd;clip-rule:evenodd;fill:none;stroke:#FFFFFF;stroke-width:0.7652;stroke-miterlimit:10;"/>
	</g>
</g>
<text id="XMLID_105_" transform="matrix(1 -0.1381 0 1 24.5108 369.3813)" class="st0 st3 st4">Fitness</text>
</svg>
